<svg width="49" height="48" viewBox="0 0 49 48" fill="none" xmlns="http://www.w3.org/2000/svg">
<path d="M8.60645 9.75977C8.50618 10.8216 8.11426 11.651 7.43066 12.248C6.74707 12.8405 5.83789 13.1367 4.70312 13.1367C3.91016 13.1367 3.21061 12.9499 2.60449 12.5762C2.00293 12.1979 1.53809 11.6624 1.20996 10.9697C0.881836 10.277 0.710938 9.47266 0.697266 8.55664V7.62695C0.697266 6.68815 0.863607 5.861 1.19629 5.14551C1.52897 4.43001 2.00521 3.87858 2.625 3.49121C3.24935 3.10384 3.9694 2.91016 4.78516 2.91016C5.88346 2.91016 6.76758 3.20866 7.4375 3.80566C8.10742 4.40267 8.49707 5.24577 8.60645 6.33496H6.88379C6.80176 5.61947 6.59212 5.10449 6.25488 4.79004C5.9222 4.47103 5.43229 4.31152 4.78516 4.31152C4.0332 4.31152 3.45443 4.58724 3.04883 5.13867C2.64779 5.68555 2.44271 6.48991 2.43359 7.55176V8.43359C2.43359 9.50911 2.625 10.3294 3.00781 10.8945C3.39518 11.4596 3.96029 11.7422 4.70312 11.7422C5.38216 11.7422 5.89258 11.5895 6.23438 11.2842C6.57617 10.9788 6.79264 10.4707 6.88379 9.75977H8.60645ZM16.0984 6.92285H13.6989V13H12.0378V6.92285H9.66574V5.60352H16.0984V6.92285ZM20.1586 10.6211L21.6625 5.60352H23.433L20.4936 14.1211C20.0424 15.3652 19.2768 15.9873 18.1967 15.9873C17.9552 15.9873 17.6886 15.9463 17.3969 15.8643V14.5791L17.7114 14.5996C18.1306 14.5996 18.4451 14.5221 18.6547 14.3672C18.8689 14.2168 19.0375 13.9616 19.1606 13.6016L19.3998 12.9658L16.8022 5.60352H18.5932L20.1586 10.6211ZM24.3214 11.6738C24.7817 11.1589 25.0893 10.6712 25.2443 10.2109C25.4038 9.74609 25.4995 9.15365 25.5314 8.43359L25.6271 5.60352H30.7609V11.6738H31.7863V15.2012H30.132V13H25.3879V15.2012H23.7062L23.713 11.6738H24.3214ZM26.2697 11.6738H29.1066V7.03223H27.2404L27.1925 8.44727C27.1287 9.80534 26.8211 10.8809 26.2697 11.6738ZM37.747 5.60352H39.4012V13H37.747V8.06445L34.8485 13H33.1942V5.60352H34.8485V10.5391L37.747 5.60352ZM47.3717 5.60352V13H45.7174V10.2861H44.1656L42.5865 13H40.8639L42.607 10.0127C42.1513 9.82129 41.8004 9.54785 41.5543 9.19238C41.3128 8.83691 41.192 8.42904 41.192 7.96875C41.192 7.2806 41.4563 6.71777 41.985 6.28027C42.5182 5.83822 43.2359 5.61263 44.1383 5.60352H47.3717ZM42.8531 8.00977C42.8531 8.31966 42.9671 8.57259 43.1949 8.76855C43.4273 8.95996 43.7236 9.05566 44.0836 9.05566H45.7174V6.92285H44.1861C43.7805 6.92285 43.457 7.02539 43.2154 7.23047C42.9739 7.43555 42.8531 7.69531 42.8531 8.00977Z" fill="#2196F3"/>
<rect x="1" y="44" width="47" height="4" rx="2" fill="#2196F3"/>
</svg>
